<?xml version="1.0" encoding="utf-8"?>
<!-- Generator: Adobe Illustrator 19.2.1, SVG Export Plug-In . SVG Version: 6.00 Build 0)  -->
<svg version="1.1" xmlns="http://www.w3.org/2000/svg" xmlns:xlink="http://www.w3.org/1999/xlink" x="0px" y="0px"
	 viewBox="0 0 80 80" style="enable-background:new 0 0 80 80;" xml:space="preserve">
<style type="text/css">
	.st0{fill-rule:evenodd;clip-rule:evenodd;}
	.st1{fill:#3BBFED;}
	.st2{font-family:'UppercutAngle';}
	.st3{font-size:18.9798px;}
	.st4{fill:#36BAE8;}
	.st5{font-family:'Chalkduster';}
	.st6{font-size:17.9875px;}
	.st7{fill:none;stroke:#000000;stroke-width:3;stroke-linecap:round;stroke-miterlimit:10;}
</style>
<g id="Layer_1">
	<g>
		<g>
			<path class="st0" d="M38.2,25.4c-0.6-0.1-0.6,0-1.4,0C36.6,25.2,38.5,25.2,38.2,25.4z"/>
			<path class="st0" d="M32.4,25.3c0.7-0.2,2.2,0,3.2-0.1C35.4,25.5,33.5,25.4,32.4,25.3z"/>
			<path class="st0" d="M32.2,25.3c-0.3,0.2-1.2,0-1.6,0C30.9,25.1,31.9,25.3,32.2,25.3z"/>
			<path class="st0" d="M53,25.2c0.7,0.1,1.6,0.2,1.6,0.5c0.5,0,0.9,0,1.4,0c0.3,0.2-0.1,0.3,0.2,0.3c0.3-0.1,1.1,0.2,1.6,0.1
				c-0.8,0.2-0.3,0.4-0.6,0.6c1.2,0,0.4,0.3,1,0.5c-0.2,0.1-0.8,0.1-0.8,0.3c0.9-0.1,0.2,0,0.8,0.1c-1.1,0-0.7,0.3-1.2,0.4
				c0.6,0,0.6-0.1,1.2-0.1c-1.1,0.4-1.5,0.8-1.2,1.3c-1.2,0.5-1.2,0.8-1.8,1.2c1.3,0.9,2.6,2,2.8,2.9c0,0.3-1-0.1-0.8,0.2
				c0,0.3,0.7-0.1,1,0.1c-0.2,0.2,0.2,0.6,0,0.6c-0.9,0-0.3-0.4-1-0.5c0.8,0.9,0.5,1.9,0.6,2.7c-0.2,0-0.4,0-0.6,0
				c-0.2,0.6,0.3,1.1,1.4,1.5c-0.5,0.1-0.8-0.2-0.8,0c1.3,0.1,0.3,0.5,1,0.5c-0.1,0.3-1.2,0-1.2,0.5c0.5,0,0.9-0.3,1,0.1
				c-0.9,0.2-0.7,0-0.2,0.3c-0.8-0.1-0.8,0.3-1.6,0.3c0.3,0,0.5,0.1,0.6,0.1c-0.8-0.1-0.4,0.1-1,0.1c0,0.4,0.2,0.7,0.2,0.8
				c-0.5,0-0.5-0.1-0.8-0.2C55.7,40,56.2,40,56,39.8c-1,0.1-0.2,0.4-0.6,0.6c0.8,0,0.8,0.3,1.8,0.3C57.1,40.7,57,40.8,57,41
				c1.2,0.1,0.6,0.1,1.2,0.3c-0.7,0.1-0.9-0.4-1.2-0.2c0.7,0,0.7,0.5,1.4,0.5c0.5,0.1,0-0.3,0,0.1c0,0.2,1,0.6,1,0.6
				c0.1,0.2-0.6,0.1,0,0.3c-0.2,0,0.3-0.2,0.4-0.1c-0.1,0.3-0.1,0.5-0.4,0.6C59,42.9,60,42.7,59,42.6c0.1,0.4-1.2-0.2-1,0.2
				c0,0.2,0.3-0.1,0.8,0c0.2,0.4,0.1,0.6,0.8,0.9c-0.9,0.1-0.1,0.1,0,0.1c-0.1,0.1-0.8,0.1-0.6,0.3c0.3,0.1,0.5-0.1,0.6,0.1
				c-0.3,0-0.3,0.1-0.6,0.1c-0.3,0-0.1-0.2-0.4-0.2c-0.1,0.1-0.1,0.3-0.6,0.3c0.4-0.4,0.9-0.4,1.2-0.8c-0.5,0-0.2-0.3-0.8-0.2
				c0,0.5-1.2,0.2-1.4,0.7c1.1,0.1,0.5-0.3,1.4-0.2c-0.6,0.4-3.3,0.7-2.2,1.1c-0.1,0,0.4-0.1,0.4-0.1c-0.2,0.2-1.1,0.4-0.8,0.5
				c0-0.1,0.3-0.2,0.4-0.1c-0.2,0.2-0.5,0.3-0.8,0.3c0.3,0.2,0.7-0.1,0.8,0.1C55.6,46,54.9,45.9,54,46c-0.7-0.6-1.5-0.2-3.8-0.3
				c-0.4,0.2-0.5,0.6-1.8,0.5c0-0.1,0.1-0.1,0.2-0.2c-0.7-0.1-0.4,0.2-0.8,0.3c-0.2-0.4,1.3-0.4,0.8-0.6c-0.8,0.1-0.6,0.2-1-0.1
				c-0.3,0.2,0.1,0.4-0.2,0.6c-0.3-0.2-0.7,0.1-0.8-0.1c0-0.2,0.5-0.3,0.4-0.5c-1.2,0-1.4,0.3-2.2,0.5c-1.9-0.1-4.7-0.2-6.2-0.8
				c-1.6,1.5-7.7,0.4-11,0.1c0,0.4,0.5,0,0.2,0.4c0.4,0,0.6-0.2,0.6,0.1c-0.3,0.2,0.4-0.2,1-0.1c-0.6,0.3,0.3,0.1,0.6,0.3
				c-0.4-0.1-1,0-0.6,0.1c0.9-0.2-0.4,0.3,0.4,0.3c0.1-0.3,0.2,0.2,0.6-0.1c-0.2,0.2-0.2,0.1,0.2,0.3c-0.8,0.2-0.8-0.1-1.4,0.2
				c-1.7-1-4.8-1.5-6.4-2.6c0.6,0,0.3,0.3,1.2,0.3c-0.2-0.3,0.9-0.5,0.4-0.7c-1.5-0.1-3.2-0.2-3.8-0.7c0.5-0.4,0.7-0.7,1.6-0.9
				c0,0.1,0.4,0.4,0.6,0.2c-0.4-0.5-2.5-0.8-1.4-1.3c0.5,0.1-0.4,0.2,0.4,0.2c-0.3-0.9-3.2-1.6-3.8-2.3c0.4-0.1,0.8-0.1,1-0.2
				c0-0.2-1.3-0.3-0.8-0.5c0.3,0,1.2,0.1,0.8,0.2c1.5-0.1,0.6-0.3,2.2-0.5c-0.9-0.9-2-1.7-4.2-2.2c-0.1-0.1,1.1-0.2,0.4-0.3
				c-0.2,0.1-0.4,0.1-0.6,0.2c0-0.6,0-1.2,0-1.8c0.2,0,0.2,0.1,0.2,0.2c0.7,0,1-0.2,1.4-0.4c-0.8-0.2-0.8,0.1-1.2,0.3
				c-0.2-0.2,0.3-0.2,0.4-0.3c-0.5,0-0.4,0.1-0.8,0.1c0-0.2,0-0.4,0-0.6c1.3-0.3,2.4-0.7,4-0.9c0,0.1-0.1,0.1-0.2,0.1
				c0,0.1,0.1,0.1,0.2,0.1c-0.8,0.1-2.1,0.5-3,0.7c0.1,0.1,0.4,0.2,0.4,0.1c-0.1,0.5,2.4,0,3-0.3c0.3,0.2,2.3-0.4,3.6-0.5
				c0-0.1-0.2-0.1-0.2-0.1c-0.7,0-0.8,0.3-1.4,0.1c0-0.1,0.7,0,0.6-0.2c-0.9,0-1.5,0.1-1.8,0.3c-0.6,0,0.5-0.2-0.4-0.1
				c-0.4,0.1,0.2,0.2-0.4,0.3c-0.1-0.1-0.4-0.4-0.2-0.6c0.2,0,0.1,0.1,0,0.1c0.4,0.2,0.8-0.1,1-0.1c0.5,0-0.3,0.1,0,0.3
				c0.6,0,0.3-0.3,1-0.3c0-0.1-0.2-0.1-0.4-0.1c0.2-0.2,0.9-0.4,1.2-0.1c0.4-0.5-1.7-1.2-2-1.7c0.4,0,0.3-0.1,0.6-0.1
				c-0.6-0.5-1.2-1-2-1.5c0.4-0.6,3.8-0.2,3.4-1.1c-1.8-0.3-0.2-1-1-1.5c0.7-0.1,0.7,0.1,0.6,0.3c0.2,0,0.3-0.1,0.6-0.1
				c-0.9-0.1,0-0.5-0.4-0.6c0.5,0,0.7,0,1.8-0.1c-0.6,0.2,4.4,0.3,4.6,0c0-0.3-3.1-0.2-2.6,0.1c-0.5,0.3-0.2-0.2-0.8-0.1
				c0.1-0.1,0.4-0.1,0.6-0.1c-0.4-0.1-1.6-0.1-2.2,0.1c-0.6-0.2,2.3-0.3,2.6-0.1c-0.2-0.2,1.5-0.1,2.8-0.1c-0.2,0.2,0.3,0.2,0.2,0.3
				c-0.3,0-0.5,0-0.6,0.1c0.4-0.1,0.9-0.1,1-0.3c2.4,0,5.1,0.3,7,0.1c0.4,0.2,0.9,0.3,1.8,0.2c-0.2-0.1-0.6-0.2-0.4-0.4
				c0.5,0.1,1,0.2,1.4,0.4c0.3,0-0.2-0.3-0.8-0.3c0-0.1,0.2-0.1,0.2-0.3c0.8,0.2,1.4,0.2,2,0.5c0.6-0.1-0.3-0.2,0.2-0.3
				c0.2,0,0.1,0.1,0,0.1c0.1,0.1,0.5,0.1,0.4,0.2c1-0.1,2.1-0.2,2.8,0c0.2,0,0.1-0.1,0.4-0.1c-0.4-0.2-0.8-0.3-1.2-0.2
				c0.2,0.1,0.2,0.1-0.2,0.1c-0.3-0.3,1.2-0.1,1.4-0.3c0.1,0,0.1,0,0.2,0c0.1,0.1-0.2,0.1-0.2,0.2c0.7-0.1,1,0.1,0.6,0.2
				c0.1,0,0.3,0,0.4,0c0.2,0,0.2,0,0.2-0.1c-0.4,0,0-0.1,0-0.2c-0.4,0-0.7,0-0.8-0.1C48.6,25.2,50.8,25.2,53,25.2z M58.6,42.7
				c-0.3-0.2,0.6-0.3,0-0.3c0,0.1,0,0.1-0.2,0.1c0-0.1-0.2-0.1-0.2-0.3c0.4,0,0.4,0.1,0.8,0.1c0-0.2-0.4-0.2-0.6-0.3
				c0,0.1,0,0.2-0.4,0.2C58,42.4,58.1,42.6,58.6,42.7z M58.4,43c-0.1,0.1-0.5-0.1-0.6,0.1c0.3,0,0.5,0.1,0.6,0.1
				c-0.2,0-0.2,0.1,0.2,0.1C58.5,43.3,58.9,43,58.4,43z M22,41.6c0.4,0.1,0.2,0.4,0.8,0.4C23,41.7,22.5,41.4,22,41.6z M22.8,37.5
				c-0.4,0-0.1-0.2-0.6-0.2c-0.1,0.2-0.2,0.3-0.6,0.3c0-0.1,0-0.1-0.2-0.1c0,0.3,0.5,0.3,0.6,0.6c0.3,0,0.7,0,0.8-0.1
				c-0.9-0.1,0-0.3,0.4-0.1C23.2,37.8,22,37.7,22.8,37.5z M25.2,26.4c1.4-0.1,2.1,0.1,3.2-0.1C27.7,26,26,26.3,25.2,26.4z
				 M30.2,25.9c-0.7,0-2.2-0.1-2.6,0.1C28.5,25.9,29.6,26.2,30.2,25.9z"/>
			<path class="st0" d="M57.6,44.9c0.2,0,0.4-0.1,0.4-0.1c0.5,0-0.1,0.3,0.4,0.3c-0.4,0.1-0.4,0-1,0.1c0.2-0.2,0.2-0.2,0-0.4
				C57.6,44.6,57.6,44.8,57.6,44.9z"/>
			<path class="st0" d="M43.6,25.2c0.7,0,0.7,0.3,0,0.4c0.4-0.1,0-0.3-0.2-0.4C43.5,25.2,43.6,25.2,43.6,25.2z"/>
		</g>
		<text transform="matrix(1 0 0 1 26.9036 41.2602)" class="st1 st2 st3">T</text>
		<text transform="matrix(1 0 0 1 39.6809 41.8237)" class="st4 st5 st6">C</text>
	</g>
</g>
<g id="Layer_2">
	<path class="st7" d="M68.6,39.6C68.6,55.3,55.9,68,40.2,68"/>
</g>
</svg>
